<svg width="27" height="30" viewBox="0 0 27 30" fill="current" xmlns="http://www.w3.org/2000/svg">
<path d="M12.363 7.03468L12.363 20.1356L7.07632 14.412C6.65381 13.9546 5.96048 13.9546 5.53798 14.412C5.11548 14.8694 5.11548 15.6083 5.53798 16.0657L12.6771 23.7949C13.0996 24.2523 13.7821 24.2523 14.2046 23.7949L21.3546 16.0775C21.5575 15.8583 21.6715 15.5608 21.6715 15.2506C21.6715 14.9404 21.5575 14.6429 21.3546 14.4237C20.9321 13.9663 20.2496 13.9663 19.8271 14.4237L14.5296 20.1356L14.5296 7.03468C14.5296 6.38961 14.0421 5.86182 13.4463 5.86182C12.8505 5.86182 12.363 6.38961 12.363 7.03468Z" fill="current"/>
<mask id="mask0_0_22" style="mask-type:alpha" maskUnits="userSpaceOnUse" x="5" y="5" width="17" height="20">
<path d="M12.363 7.03468L12.363 20.1356L7.07632 14.412C6.65381 13.9546 5.96048 13.9546 5.53798 14.412C5.11548 14.8694 5.11548 15.6083 5.53798 16.0657L12.6771 23.7949C13.0996 24.2523 13.7821 24.2523 14.2046 23.7949L21.3546 16.0775C21.5575 15.8583 21.6715 15.5608 21.6715 15.2506C21.6715 14.9404 21.5575 14.6429 21.3546 14.4237C20.9321 13.9663 20.2496 13.9663 19.8271 14.4237L14.5296 20.1356L14.5296 7.03468C14.5296 6.38961 14.0421 5.86182 13.4463 5.86182C12.8505 5.86182 12.363 6.38961 12.363 7.03468Z" fill="current"/>
</mask>
<g mask="url(#mask0_0_22)">
</g>
</svg>
